<svg width="412" height="476" viewBox="0 0 412 476" fill="none" xmlns="http://www.w3.org/2000/svg">
<path opacity="0.1" d="M83.9223 0.232477C71.4782 -0.224912 58.4792 -0.546512 47.2272 4.77778C35.9753 10.1021 27.2759 23.0019 31.0492 34.8618C32.2807 38.7282 34.6793 42.0978 36.702 45.6176C46.8155 63.2199 47.2845 85.9714 37.9085 103.977C30.6912 117.838 18.4583 128.387 9.65154 141.301C0.844729 154.215 -4.16012 172.114 4.50349 185.125C10.4356 194.033 21.4441 198.367 32.1089 199.418C42.7737 200.469 53.4994 198.814 64.2108 198.389C85.0543 197.589 105.809 201.507 124.92 209.849C151.23 221.362 173.895 241.058 201.597 248.659C204.923 249.57 208.399 250.306 211.8 249.688C217.832 248.591 222.218 243.613 226.94 239.683C242.015 227.222 262.887 224.896 282.455 224.317C302.023 223.738 322.404 224.185 340.093 215.798C355.537 208.476 367.426 194.855 374.819 179.468C382.212 164.081 385.423 146.983 386.633 129.956C387.349 119.822 387.324 109.359 383.69 99.8717C379.606 89.2053 371.321 80.7114 362.633 73.286C353.554 65.5247 343.659 58.4923 332.45 54.3044C319.06 49.3017 304.526 48.587 290.27 47.4007C261.037 44.9638 232.032 40.3146 203.505 33.4932C176.43 27.0326 146.701 19.9752 122.042 6.81458C109.666 0.207464 97.8736 0.732746 83.9223 0.232477Z" transform="translate(13 177)" fill="#237AE0"/>
<g opacity="0.1">
<path opacity="0.1" d="M0 50.7201C0 50.7201 1.26731 32.9927 11.2627 23.3268C15.4824 19.2996 18.2788 14.0143 19.2318 8.26516C19.662 5.53212 19.8418 2.76562 19.7688 0" transform="translate(268.568 351.291)" fill="#6C63FF"/>
<path opacity="0.1" d="M7.31198 5.10619C6.57807 7.06438 0.903781 11.4167 0.903781 11.4167C0.903781 11.4167 -0.528217 4.41653 0.212843 2.45834C0.564624 1.51868 1.27597 0.75699 2.19039 0.340838C3.10481 -0.0753144 4.1474 -0.111847 5.08881 0.23928C6.03021 0.590407 6.79331 1.30044 7.21024 2.21316C7.62717 3.12588 7.66376 4.16653 7.31198 5.10619V5.10619Z" transform="translate(287.285 340.056)" fill="#6C63FF"/>
<path opacity="0.1" d="M8.81397 6.76413C7.13136 8.00765 0 8.58295 0 8.58295C0 8.58295 2.6134 1.93296 4.296 0.685857C5.10473 0.119815 6.10286 -0.108847 7.07794 0.0485477C8.05301 0.205943 8.92803 0.736974 9.51679 1.5286C10.1055 2.32022 10.3615 3.30992 10.2303 4.28708C10.099 5.26424 9.59085 6.1517 8.81397 6.76055V6.76413Z" transform="translate(287.596 351.43)" fill="#6C63FF"/>
<path opacity="0.1" d="M8.53115 7.50971C6.44759 7.73841 0 4.65104 0 4.65104C0 4.65104 5.62061 0.227233 7.70059 0.00568505C8.6675 -0.0472796 9.618 0.271402 10.3568 0.896274C11.0956 1.52115 11.5665 2.40475 11.6729 3.36547C11.7792 4.32619 11.5129 5.29106 10.9285 6.06184C10.3442 6.83261 9.48633 7.35073 8.53115 7.50971Z" transform="translate(280.688 369.112)" fill="#6C63FF"/>
<path opacity="0.1" d="M8.89274 7.4498C6.88077 8.02511 0 6.05976 0 6.05976C0 6.05976 4.79004 0.753354 6.80201 0.178045C7.28512 0.0246577 7.79414 -0.0304627 8.29897 0.0159529C8.80379 0.0623685 9.29418 0.209374 9.74109 0.44827C10.188 0.687167 10.5824 1.0131 10.9009 1.4068C11.2193 1.80049 11.4555 2.25394 11.5953 2.74032C11.7352 3.22671 11.7759 3.73616 11.715 4.23852C11.6541 4.74088 11.493 5.22595 11.241 5.66504C10.989 6.10413 10.6513 6.48833 10.248 6.79489C9.84465 7.10144 9.38382 7.32413 8.89274 7.4498V7.4498Z" transform="translate(271.736 381.893)" fill="#6C63FF"/>
<path opacity="0.1" d="M0.320266 5.30642C1.21527 7.19314 7.23683 11.0488 7.23683 11.0488C7.23683 11.0488 8.06739 3.95569 7.16881 2.06539C6.72068 1.18804 5.94754 0.519616 5.0136 0.202094C4.07967 -0.115428 3.05851 -0.0570335 2.16701 0.364862C1.27551 0.786758 0.583917 1.53892 0.239091 2.46161C-0.105735 3.3843 -0.0766172 4.40482 0.320266 5.30642V5.30642Z" transform="translate(279.679 352.306)" fill="#6C63FF"/>
<path opacity="0.1" d="M0.998763 6.34369C2.43076 7.87666 9.32227 9.75981 9.32227 9.75981C9.32227 9.75981 7.98692 2.74176 6.56566 1.20522C5.88197 0.472439 4.93518 0.0399993 3.93269 0.00263778C2.93019 -0.0347237 1.95374 0.326047 1.2172 1.0059C0.48067 1.68575 0.0441029 2.62925 0.00316177 3.62975C-0.0377794 4.63024 0.32023 5.60615 0.998763 6.34369V6.34369Z" transform="translate(269.144 366.272)" fill="#6C63FF"/>
<path opacity="0.1" d="M0.555593 5.75633C1.69403 7.50727 8.181 10.5268 8.181 10.5268C8.181 10.5268 8.05212 3.38006 6.9101 1.63269C6.34898 0.822297 5.49336 0.262259 4.52508 0.07158C3.55681 -0.119099 2.55219 0.0746201 1.72475 0.611573C0.897312 1.14853 0.312256 1.98637 0.093933 2.94707C-0.12439 3.90777 0.0412389 4.91558 0.555593 5.75633Z" transform="translate(262.016 382.754)" fill="#6C63FF"/>
<path opacity="0.1" d="M7.31198 5.10619C6.57807 7.06438 0.903781 11.4167 0.903781 11.4167C0.903781 11.4167 -0.528217 4.41653 0.212843 2.45834C0.564624 1.51868 1.27597 0.75699 2.19039 0.340838C3.10481 -0.0753144 4.1474 -0.111847 5.08881 0.23928C6.03021 0.590407 6.79331 1.30044 7.21024 2.21316C7.62717 3.12588 7.66376 4.16653 7.31198 5.10619V5.10619Z" transform="translate(287.285 340.056)" fill="#6C63FF"/>
<path opacity="0.1" d="M8.81397 6.76413C7.13136 8.00765 0 8.58295 0 8.58295C0 8.58295 2.6134 1.93296 4.296 0.685857C5.10473 0.119815 6.10286 -0.108847 7.07794 0.0485477C8.05301 0.205943 8.92803 0.736974 9.51679 1.5286C10.1055 2.32022 10.3615 3.30992 10.2303 4.28708C10.099 5.26424 9.59085 6.1517 8.81397 6.76055V6.76413Z" transform="translate(287.596 351.43)" fill="#6C63FF"/>
<path opacity="0.1" d="M8.53115 7.50971C6.44759 7.73841 0 4.65104 0 4.65104C0 4.65104 5.62061 0.227233 7.70059 0.00568505C8.6675 -0.0472796 9.618 0.271402 10.3568 0.896274C11.0956 1.52115 11.5665 2.40475 11.6729 3.36547C11.7792 4.32619 11.5129 5.29106 10.9285 6.06184C10.3442 6.83261 9.48633 7.35073 8.53115 7.50971Z" transform="translate(280.688 369.112)" fill="#6C63FF"/>
<path opacity="0.1" d="M8.89274 7.4498C6.88077 8.02511 0 6.05976 0 6.05976C0 6.05976 4.79004 0.753354 6.80201 0.178045C7.28512 0.0246577 7.79414 -0.0304627 8.29897 0.0159529C8.80379 0.0623685 9.29418 0.209374 9.74109 0.44827C10.188 0.687167 10.5824 1.0131 10.9009 1.4068C11.2193 1.80049 11.4555 2.25394 11.5953 2.74032C11.7352 3.22671 11.7759 3.73616 11.715 4.23852C11.6541 4.74088 11.493 5.22595 11.241 5.66504C10.989 6.10413 10.6513 6.48833 10.248 6.79489C9.84465 7.10144 9.38382 7.32413 8.89274 7.4498V7.4498Z" transform="translate(271.736 381.893)" fill="#6C63FF"/>
<path opacity="0.1" d="M0.320266 5.30642C1.21527 7.19314 7.23683 11.0488 7.23683 11.0488C7.23683 11.0488 8.06739 3.95569 7.16881 2.06539C6.72068 1.18804 5.94754 0.519616 5.0136 0.202094C4.07967 -0.115428 3.05851 -0.0570335 2.16701 0.364862C1.27551 0.786758 0.583917 1.53892 0.239091 2.46161C-0.105735 3.3843 -0.0766172 4.40482 0.320266 5.30642V5.30642Z" transform="translate(279.679 352.306)" fill="#6C63FF"/>
<path opacity="0.1" d="M0.998763 6.34369C2.43076 7.87666 9.32227 9.75981 9.32227 9.75981C9.32227 9.75981 7.98692 2.74176 6.56566 1.20522C5.88197 0.472439 4.93518 0.0399993 3.93269 0.00263778C2.93019 -0.0347237 1.95374 0.326047 1.2172 1.0059C0.48067 1.68575 0.0441029 2.62925 0.00316177 3.62975C-0.0377794 4.63024 0.32023 5.60615 0.998763 6.34369V6.34369Z" transform="translate(269.144 366.272)" fill="#6C63FF"/>
<path opacity="0.1" d="M0.555593 5.75633C1.69403 7.50727 8.181 10.5268 8.181 10.5268C8.181 10.5268 8.05212 3.38006 6.9101 1.63269C6.34898 0.822297 5.49336 0.262259 4.52508 0.07158C3.55681 -0.119099 2.55219 0.0746201 1.72475 0.611573C0.897312 1.14853 0.312256 1.98637 0.093933 2.94707C-0.12439 3.90777 0.0412389 4.91558 0.555593 5.75633Z" transform="translate(262.016 382.754)" fill="#6C63FF"/>
</g>
<g opacity="0.1">
<path opacity="0.1" d="M0 50.7201C0 50.7201 1.26731 32.9927 11.2627 23.3268C15.4809 19.2985 18.277 14.0138 19.2318 8.26516C19.6655 5.5325 19.8452 2.76568 19.7688 0" transform="translate(272.08 284.19)" fill="#6C63FF"/>
<path opacity="0.1" d="M7.31019 5.10619C6.59419 7.06081 0.905582 11.4131 0.905582 11.4131C0.905582 11.4131 -0.52642 4.41296 0.21106 2.45834C0.562841 1.51868 1.27418 0.75699 2.18861 0.340838C3.10303 -0.0753144 4.14562 -0.111847 5.08702 0.23928C6.02843 0.590407 6.79153 1.30044 7.20845 2.21316C7.62538 3.12588 7.66197 4.16653 7.31019 5.10619V5.10619Z" transform="translate(290.8 272.956)" fill="#6C63FF"/>
<path opacity="0.1" d="M8.81397 6.88251C7.13495 8.12961 0 8.70134 0 8.70134C0 8.70134 2.6134 2.05492 4.296 0.80782C4.69438 0.495609 5.15139 0.266241 5.64006 0.133259C6.12872 0.000276448 6.63912 -0.0336199 7.14113 0.0335652C7.64313 0.10075 8.12655 0.267658 8.56286 0.524432C8.99917 0.781205 9.37951 1.12263 9.68141 1.52856C9.98332 1.93449 10.2007 2.3967 10.3206 2.88787C10.4406 3.37904 10.4608 3.88923 10.3799 4.3883C10.299 4.88737 10.1188 5.36521 9.84986 5.7936C9.58091 6.222 9.22867 6.59225 8.81397 6.88251V6.88251Z" transform="translate(291.118 284.208)" fill="#6C63FF"/>
<path opacity="0.1" d="M8.52757 7.5349C6.44759 7.7636 0 4.67622 0 4.67622C0 4.67622 5.62061 0.255991 7.70059 0.0308698C8.20026 -0.0332279 8.70772 0.00271851 9.19331 0.136605C9.67891 0.270491 10.1329 0.499632 10.5288 0.810642C10.9246 1.12165 11.2544 1.50829 11.4988 1.94797C11.7433 2.38764 11.8975 2.87154 11.9525 3.37139C12.0074 3.87123 11.962 4.37699 11.8189 4.85912C11.6758 5.34125 11.4379 5.79007 11.119 6.17937C10.8001 6.56866 10.4067 6.89062 9.96178 7.12643C9.51683 7.36225 9.02927 7.50719 8.52757 7.55277V7.5349Z" transform="translate(284.201 301.987)" fill="#6C63FF"/>
<path opacity="0.1" d="M8.89274 7.40848C6.88078 7.98379 0 6.01845 0 6.01845C0 6.01845 4.79362 0.712029 6.80201 0.133147C7.76399 -0.128515 8.79052 -0.00139299 9.65928 0.486992C10.528 0.975378 11.1691 1.7857 11.4436 2.74246C11.718 3.69922 11.6038 4.72539 11.1257 5.59873C10.6476 6.47206 9.84409 7.12226 8.88915 7.40848H8.89274Z" transform="translate(275.247 314.834)" fill="#6C63FF"/>
<path opacity="0.1" d="M0.396674 5.46933C1.29167 7.35963 7.31682 11.2153 7.31682 11.2153C7.31682 11.2153 8.1438 4.1186 7.2488 2.23187C7.04203 1.77302 6.74566 1.35993 6.37703 1.01677C6.0084 0.673615 5.57492 0.407279 5.10194 0.233338C4.62895 0.0593962 4.12596 -0.0186522 3.62239 0.00375485C3.11882 0.0261619 2.6248 0.148577 2.16919 0.363838C1.71359 0.579098 1.30556 0.882877 0.968984 1.25741C0.632411 1.63195 0.374045 2.06972 0.208999 2.54512C0.0439521 3.02052 -0.0244697 3.52399 0.00775465 4.02609C0.039979 4.52819 0.172205 5.01884 0.396674 5.46933Z" transform="translate(283.114 285.038)" fill="#6C63FF"/>
<path opacity="0.1" d="M0.942013 6.28059C2.37401 7.81713 9.2691 9.69671 9.2691 9.69671C9.2691 9.69671 7.9302 2.67866 6.50894 1.14569C5.81956 0.43826 4.88058 0.0276296 3.89222 0.00134404C2.90385 -0.0249415 1.9443 0.335199 1.21816 1.00498C0.492025 1.67477 0.0567538 2.6012 0.0051683 3.58673C-0.0464172 4.57226 0.289756 5.53892 0.942013 6.28059V6.28059Z" transform="translate(272.712 299.232)" fill="#6C63FF"/>
<path opacity="0.1" d="M0.67237 5.93566C1.81439 7.6866 8.29777 10.7061 8.29777 10.7061C8.29777 10.7061 8.1689 3.55938 7.02688 1.81202C6.76271 1.38021 6.41447 1.00567 6.00276 0.710535C5.59105 0.415402 5.12422 0.20567 4.62989 0.093749C4.13556 -0.0181722 3.62375 -0.0300113 3.12475 0.0589293C2.62576 0.14787 2.14971 0.335785 1.72474 0.611562C1.29977 0.887338 0.934515 1.24538 0.650585 1.6645C0.366656 2.08363 0.169811 2.55533 0.0716972 3.05171C-0.0264171 3.54808 -0.0238063 4.05906 0.0793668 4.55441C0.18254 5.04977 0.38418 5.51944 0.67237 5.93566Z" transform="translate(265.41 315.474)" fill="#6C63FF"/>
<path opacity="0.1" d="M7.31019 5.10619C6.59419 7.06081 0.905582 11.4131 0.905582 11.4131C0.905582 11.4131 -0.52642 4.41296 0.21106 2.45834C0.562841 1.51868 1.27418 0.75699 2.18861 0.340838C3.10303 -0.0753144 4.14562 -0.111847 5.08702 0.23928C6.02843 0.590407 6.79153 1.30044 7.20845 2.21316C7.62538 3.12588 7.66197 4.16653 7.31019 5.10619V5.10619Z" transform="translate(290.8 272.956)" fill="#6C63FF"/>
<path opacity="0.1" d="M8.81397 6.88251C7.13495 8.12961 0 8.70134 0 8.70134C0 8.70134 2.6134 2.05492 4.296 0.80782C4.69438 0.495609 5.15139 0.266241 5.64006 0.133259C6.12872 0.000276448 6.63912 -0.0336199 7.14113 0.0335652C7.64313 0.10075 8.12655 0.267658 8.56286 0.524432C8.99917 0.781205 9.37951 1.12263 9.68141 1.52856C9.98332 1.93449 10.2007 2.3967 10.3206 2.88787C10.4406 3.37904 10.4608 3.88923 10.3799 4.3883C10.299 4.88737 10.1188 5.36521 9.84986 5.7936C9.58091 6.222 9.22867 6.59225 8.81397 6.88251V6.88251Z" transform="translate(291.118 284.208)" fill="#6C63FF"/>
<path opacity="0.1" d="M8.52757 7.5349C6.44759 7.7636 0 4.67622 0 4.67622C0 4.67622 5.62061 0.255991 7.70059 0.0308698C8.20026 -0.0332279 8.70772 0.00271851 9.19331 0.136605C9.67891 0.270491 10.1329 0.499632 10.5288 0.810642C10.9246 1.12165 11.2544 1.50829 11.4988 1.94797C11.7433 2.38764 11.8975 2.87154 11.9525 3.37139C12.0074 3.87123 11.962 4.37699 11.8189 4.85912C11.6758 5.34125 11.4379 5.79007 11.119 6.17937C10.8001 6.56866 10.4067 6.89062 9.96178 7.12643C9.51683 7.36225 9.02927 7.50719 8.52757 7.55277V7.5349Z" transform="translate(284.201 301.987)" fill="#6C63FF"/>
<path opacity="0.1" d="M8.89274 7.40848C6.88078 7.98379 0 6.01845 0 6.01845C0 6.01845 4.79362 0.712029 6.80201 0.133147C7.76399 -0.128515 8.79052 -0.00139299 9.65928 0.486992C10.528 0.975378 11.1691 1.7857 11.4436 2.74246C11.718 3.69922 11.6038 4.72539 11.1257 5.59873C10.6476 6.47206 9.84409 7.12226 8.88915 7.40848H8.89274Z" transform="translate(275.247 314.834)" fill="#6C63FF"/>
<path opacity="0.1" d="M0.396674 5.46933C1.29167 7.35963 7.31682 11.2153 7.31682 11.2153C7.31682 11.2153 8.1438 4.1186 7.2488 2.23187C7.04203 1.77302 6.74566 1.35993 6.37703 1.01677C6.0084 0.673615 5.57492 0.407279 5.10194 0.233338C4.62895 0.0593962 4.12596 -0.0186522 3.62239 0.00375485C3.11882 0.0261619 2.6248 0.148577 2.16919 0.363838C1.71359 0.579098 1.30556 0.882877 0.968984 1.25741C0.632411 1.63195 0.374045 2.06972 0.208999 2.54512C0.0439521 3.02052 -0.0244697 3.52399 0.00775465 4.02609C0.039979 4.52819 0.172205 5.01884 0.396674 5.46933Z" transform="translate(283.114 285.038)" fill="#6C63FF"/>
<path opacity="0.1" d="M0.942013 6.28059C2.37401 7.81713 9.2691 9.69671 9.2691 9.69671C9.2691 9.69671 7.9302 2.67866 6.50894 1.14569C5.81956 0.43826 4.88058 0.0276296 3.89222 0.00134404C2.90385 -0.0249415 1.9443 0.335199 1.21816 1.00498C0.492025 1.67477 0.0567538 2.6012 0.0051683 3.58673C-0.0464172 4.57226 0.289756 5.53892 0.942013 6.28059V6.28059Z" transform="translate(272.712 299.232)" fill="#6C63FF"/>
<path opacity="0.1" d="M0.67237 5.93566C1.81439 7.6866 8.29777 10.7061 8.29777 10.7061C8.29777 10.7061 8.1689 3.55938 7.02688 1.81202C6.76271 1.38021 6.41447 1.00567 6.00276 0.710535C5.59105 0.415402 5.12422 0.20567 4.62989 0.093749C4.13556 -0.0181722 3.62375 -0.0300113 3.12475 0.0589293C2.62576 0.14787 2.14971 0.335785 1.72474 0.611562C1.29977 0.887338 0.934515 1.24538 0.650585 1.6645C0.366656 2.08363 0.169811 2.55533 0.0716972 3.05171C-0.0264171 3.54808 -0.0238063 4.05906 0.0793668 4.55441C0.18254 5.04977 0.38418 5.51944 0.67237 5.93566Z" transform="translate(265.41 315.474)" fill="#6C63FF"/>
</g>
<g opacity="0.1">
<path opacity="0.1" d="M36.5089 40.4181C36.5089 40.4181 21.2187 31.3204 17.0551 18.0704C15.3499 12.4974 11.8773 7.62804 7.16001 4.19512C4.90752 2.58018 2.51071 1.17586 0 0" transform="translate(45.6533 317.719)" fill="#6C63FF"/>
<path opacity="0.1" d="M6.50022 1.1368C7.93222 2.66977 9.26756 9.68782 9.26756 9.68782C9.26756 9.68782 2.36174 7.81181 0.940478 6.27884C0.289522 5.53773 -0.0460666 4.57238 0.00509724 3.5881C0.0562611 2.60382 0.49014 1.6783 1.21444 1.00842C1.93874 0.33853 2.89631 -0.0228546 3.88345 0.00112109C4.8706 0.0250968 5.80942 0.432544 6.50022 1.1368Z" transform="translate(36.4863 308.234)" fill="#6C63FF"/>
<path opacity="0.1" d="M7.54129 3.22807C7.89929 5.28632 5.20712 11.9042 5.20712 11.9042C5.20712 11.9042 0.431399 6.58345 0.0733987 4.5252C-0.0256443 4.03013 -0.02444 3.52028 0.0769385 3.02568C0.178317 2.53109 0.377817 2.06173 0.663698 1.64527C0.94958 1.2288 1.31606 0.873645 1.74156 0.600709C2.16705 0.327773 2.64296 0.142578 3.14125 0.0560267C3.63955 -0.030524 4.15016 -0.0166788 4.64301 0.096746C5.13586 0.210171 5.601 0.420886 6.01102 0.716477C6.42104 1.01207 6.76766 1.38656 7.03047 1.8179C7.29328 2.24924 7.46696 2.72871 7.54129 3.22807V3.22807Z" transform="translate(47.9209 310.406)" fill="#6C63FF"/>
<path opacity="0.1" d="M7.31201 5.20424C6.59601 7.16243 0.907383 11.5183 0.907383 11.5183C0.907383 11.5183 -0.524617 4.51816 0.209284 2.56354C0.372773 2.08468 0.630795 1.6434 0.968101 1.2658C1.30541 0.888198 1.71515 0.581935 2.17308 0.365125C2.63102 0.148315 3.12787 0.0253593 3.63424 0.00352612C4.14061 -0.0183071 4.64623 0.0614194 5.12119 0.238005C5.59615 0.414591 6.03082 0.684453 6.39949 1.03162C6.76817 1.37878 7.06336 1.7962 7.26761 2.2592C7.47186 2.72221 7.58103 3.22139 7.58865 3.72723C7.59628 4.23308 7.50221 4.73531 7.31201 5.20424V5.20424Z" transform="translate(61.4102 323.109)" fill="#6C63FF"/>
<path opacity="0.1" d="M7.48637 4.46633C7.09973 6.52101 2.24525 11.7881 2.24525 11.7881C2.24525 11.7881 -0.35025 5.13097 0.0399706 3.07987C0.132352 2.59184 0.320131 2.12676 0.592589 1.71116C0.865046 1.29557 1.21684 0.937607 1.6279 0.65772C2.03895 0.377833 2.50121 0.1815 2.98828 0.0799301C3.47536 -0.0216402 3.9777 -0.0264557 4.46664 0.0657536C4.95558 0.157963 5.42154 0.345388 5.8379 0.617339C6.25427 0.88929 6.6129 1.24044 6.8933 1.65073C7.17371 2.06102 7.37041 2.52242 7.47217 3.00859C7.57393 3.49475 7.57875 3.99617 7.48637 4.48419V4.46633Z" transform="translate(68.7588 337.222)" fill="#6C63FF"/>
<path opacity="0.1" d="M3.62719 7.55409C5.71791 7.60412 11.8791 3.98074 11.8791 3.98074C11.8791 3.98074 5.90049 0.0500564 3.80619 2.95051e-05C2.81361 -0.00388025 1.85909 0.380913 1.14762 1.07175C0.436153 1.76259 0.0244948 2.70437 0.00105819 3.69483C-0.0223784 4.68529 0.344276 5.64542 1.02227 6.36901C1.70027 7.09261 2.63554 7.52194 3.62719 7.56481V7.55409Z" transform="translate(43.9375 320.431)" fill="#6C63FF"/>
<path opacity="0.1" d="M4.74923 7.37862C6.76119 6.79974 11.5512 1.48974 11.5512 1.48974C11.5512 1.48974 4.67047 -0.472025 2.65851 0.106857C1.71366 0.402116 0.92201 1.0546 0.452796 1.92481C-0.0164176 2.79502 -0.125968 3.81391 0.147571 4.76368C0.421109 5.71345 1.05603 6.51873 1.9166 7.00738C2.77717 7.49603 3.79511 7.62927 4.75281 7.37862H4.74923Z" transform="translate(51.8125 336.14)" fill="#6C63FF"/>
<path opacity="0.1" d="M4.41065 7.51686C6.49422 7.28816 12.1112 2.8715 12.1112 2.8715C12.1112 2.8715 5.66724 -0.223014 3.5801 0.0128268C3.06587 0.0409947 2.5628 0.173535 2.10164 0.402353C1.64047 0.631171 1.2309 0.951452 0.897956 1.34363C0.565015 1.7358 0.315696 2.19162 0.16524 2.68324C0.0147845 3.17486 -0.033646 3.69194 0.0229052 4.20287C0.0794565 4.71381 0.239805 5.20787 0.494146 5.65485C0.748488 6.10183 1.09148 6.49234 1.50216 6.80251C1.91284 7.11269 2.38257 7.33602 2.88266 7.45884C3.38274 7.58166 3.90267 7.60141 4.41065 7.51686V7.51686Z" transform="translate(62.9697 349.898)" fill="#6C63FF"/>
<path opacity="0.1" d="M6.50022 1.1368C7.93222 2.66977 9.26756 9.68782 9.26756 9.68782C9.26756 9.68782 2.36174 7.81181 0.940478 6.27884C0.289522 5.53773 -0.0460666 4.57238 0.00509724 3.5881C0.0562611 2.60382 0.49014 1.6783 1.21444 1.00842C1.93874 0.33853 2.89631 -0.0228546 3.88345 0.00112109C4.8706 0.0250968 5.80942 0.432544 6.50022 1.1368Z" transform="translate(36.4863 308.234)" fill="#6C63FF"/>
<path opacity="0.1" d="M7.54129 3.22807C7.89929 5.28632 5.20712 11.9042 5.20712 11.9042C5.20712 11.9042 0.431399 6.58345 0.0733987 4.5252C-0.0256443 4.03013 -0.02444 3.52028 0.0769385 3.02568C0.178317 2.53109 0.377817 2.06173 0.663698 1.64527C0.94958 1.2288 1.31606 0.873645 1.74156 0.600709C2.16705 0.327773 2.64296 0.142578 3.14125 0.0560267C3.63955 -0.030524 4.15016 -0.0166788 4.64301 0.096746C5.13586 0.210171 5.601 0.420886 6.01102 0.716477C6.42104 1.01207 6.76766 1.38656 7.03047 1.8179C7.29328 2.24924 7.46696 2.72871 7.54129 3.22807V3.22807Z" transform="translate(47.9209 310.406)" fill="#6C63FF"/>
<path opacity="0.1" d="M7.31201 5.20424C6.59601 7.16243 0.907383 11.5183 0.907383 11.5183C0.907383 11.5183 -0.524617 4.51816 0.209284 2.56354C0.372773 2.08468 0.630795 1.6434 0.968101 1.2658C1.30541 0.888198 1.71515 0.581935 2.17308 0.365125C2.63102 0.148315 3.12787 0.0253593 3.63424 0.00352612C4.14061 -0.0183071 4.64623 0.0614194 5.12119 0.238005C5.59615 0.414591 6.03082 0.684453 6.39949 1.03162C6.76817 1.37878 7.06336 1.7962 7.26761 2.2592C7.47186 2.72221 7.58103 3.22139 7.58865 3.72723C7.59628 4.23308 7.50221 4.73531 7.31201 5.20424V5.20424Z" transform="translate(61.4102 323.109)" fill="#6C63FF"/>
<path opacity="0.1" d="M7.48637 4.46633C7.09973 6.52101 2.24525 11.7881 2.24525 11.7881C2.24525 11.7881 -0.35025 5.13097 0.0399706 3.07987C0.132352 2.59184 0.320131 2.12676 0.592589 1.71116C0.865046 1.29557 1.21684 0.937607 1.6279 0.65772C2.03895 0.377833 2.50121 0.1815 2.98828 0.0799301C3.47536 -0.0216402 3.9777 -0.0264557 4.46664 0.0657536C4.95558 0.157963 5.42154 0.345388 5.8379 0.617339C6.25427 0.88929 6.6129 1.24044 6.8933 1.65073C7.17371 2.06102 7.37041 2.52242 7.47217 3.00859C7.57393 3.49475 7.57875 3.99617 7.48637 4.48419V4.46633Z" transform="translate(68.7588 337.222)" fill="#6C63FF"/>
<path opacity="0.1" d="M3.62719 7.55409C5.71791 7.60412 11.8791 3.98074 11.8791 3.98074C11.8791 3.98074 5.90049 0.0500564 3.80619 2.95051e-05C2.81361 -0.00388025 1.85909 0.380913 1.14762 1.07175C0.436153 1.76259 0.0244948 2.70437 0.00105819 3.69483C-0.0223784 4.68529 0.344276 5.64542 1.02227 6.36901C1.70027 7.09261 2.63554 7.52194 3.62719 7.56481V7.55409Z" transform="translate(43.9375 320.431)" fill="#6C63FF"/>
<path opacity="0.1" d="M4.74923 7.37862C6.76119 6.79974 11.5512 1.48974 11.5512 1.48974C11.5512 1.48974 4.67047 -0.472025 2.65851 0.106857C1.71366 0.402116 0.92201 1.0546 0.452796 1.92481C-0.0164176 2.79502 -0.125968 3.81391 0.147571 4.76368C0.421109 5.71345 1.05603 6.51873 1.9166 7.00738C2.77717 7.49603 3.79511 7.62927 4.75281 7.37862H4.74923Z" transform="translate(51.8125 336.14)" fill="#6C63FF"/>
<path opacity="0.1" d="M4.41065 7.51686C6.49422 7.28816 12.1112 2.8715 12.1112 2.8715C12.1112 2.8715 5.66724 -0.223014 3.5801 0.0128268C3.06587 0.0409947 2.5628 0.173535 2.10164 0.402353C1.64047 0.631171 1.2309 0.951452 0.897956 1.34363C0.565015 1.7358 0.315696 2.19162 0.16524 2.68324C0.0147845 3.17486 -0.033646 3.69194 0.0229052 4.20287C0.0794565 4.71381 0.239805 5.20787 0.494146 5.65485C0.748488 6.10183 1.09148 6.49234 1.50216 6.80251C1.91284 7.11269 2.38257 7.33602 2.88266 7.45884C3.38274 7.58166 3.90267 7.60141 4.41065 7.51686V7.51686Z" transform="translate(62.9697 349.898)" fill="#6C63FF"/>
</g>
<path opacity="0.1" d="M0 13.68C10.2782 18.1432 22.8189 15.4274 34.4826 15.7419C36.0757 15.7848 37.769 15.917 39.0471 16.6888C40.3252 17.4606 40.9588 18.7078 41.8359 19.7798C45.1045 23.7605 51.8026 25.0397 57.6559 24.3644C63.5093 23.689 68.8757 21.4521 74.3996 19.7512C83.9475 16.8067 94.8594 15.4631 104.278 18.6792C105.141 18.9722 106.068 19.3116 106.978 19.1937C109.043 18.9329 109.659 16.796 111.102 15.5775C113.708 13.3727 119.372 13.9731 120.517 11.0679C121.187 9.36702 119.644 7.62322 117.961 6.46188C111.517 2.01664 102.316 1.2841 93.8927 1.97018C85.469 2.65626 77.1885 4.54658 68.7217 4.55373C58.1715 4.55373 47.9792 1.65216 37.5328 0.462239C30.2976 -0.359631 22.4001 -0.252423 15.616 2.16673C8.26265 4.78242 6.64449 10.6749 0 13.68Z" transform="translate(269.591 451.464)" fill="#237AE0"/>
<path opacity="0.1" d="M0 15.4571C17.542 20.4991 38.9504 17.4296 58.8553 17.7869C61.5796 17.8369 64.4651 17.9834 66.6525 18.8589C68.8399 19.7344 69.9139 21.1458 71.4139 22.3536C76.9916 26.8525 88.4225 28.2997 98.4107 27.535C108.399 26.7703 117.564 24.2439 126.993 22.3215C143.29 18.9947 161.92 17.4796 177.994 21.1065C179.469 21.4388 181.023 21.8212 182.605 21.689C186.128 21.3924 187.177 18.9804 189.644 17.6011C194.093 15.0997 203.756 15.7894 205.711 12.5091C206.856 10.5866 204.221 8.6141 201.35 7.30269C190.367 2.28213 174.65 1.45311 160.27 2.22853C145.889 3.00394 131.755 5.13725 117.31 5.14797C99.3021 5.14797 81.9033 1.87121 64.0713 0.524056C51.7203 -0.405014 38.2416 -0.29068 26.6603 2.45365C14.1052 5.41596 11.3379 12.0731 0 15.4571Z" transform="translate(75.0791 435.998)" fill="#237AE0"/>
<path opacity="0.1" d="M0 9.24385C5.012 12.2526 11.098 10.423 16.7759 10.6339C17.5528 10.6625 18.3762 10.7518 18.9991 11.2699C19.622 11.7881 19.9299 12.635 20.3559 13.3568C21.9454 16.0404 25.2032 16.9051 28.0493 16.4477C30.8954 15.9903 33.5088 14.4859 36.1974 13.3353C40.8514 11.3521 46.1534 10.4481 50.7322 12.6206C51.1246 12.871 51.5843 12.9957 52.0497 12.978C53.0521 12.7993 53.3528 11.3593 54.0545 10.5374C55.3218 9.05089 58.0784 9.46539 58.6333 7.49648C58.9591 6.34943 58.2073 5.1738 57.391 4.39124C54.2621 1.3932 49.7799 0.900084 45.6808 1.36105C41.5817 1.82201 37.5542 3.07267 33.4337 3.07267C28.3035 3.07267 23.3452 1.11806 18.2616 0.314058C14.7389 -0.243384 10.8975 -0.171928 7.59677 1.46467C4.02034 3.25134 3.23274 7.22491 0 9.24385Z" transform="translate(28.125 454.567)" fill="#6C63FF"/>
<path opacity="0.08" d="M180.165 2.04334e-05H15.1381C13.1531 -0.00323999 11.1869 0.383714 9.35177 1.13878C7.51667 1.89385 5.84862 3.00224 4.44287 4.40065C3.03713 5.79905 1.92123 7.46009 1.15891 9.28888C0.396598 11.1177 0.00279636 13.0784 0 15.0591V243.206C0.0084701 247.204 1.6079 251.036 4.44663 253.858C7.28536 256.679 11.131 258.261 15.1381 258.254H180.165C182.15 258.258 184.116 257.871 185.951 257.116C187.786 256.361 189.454 255.252 190.86 253.854C192.266 252.455 193.382 250.794 194.144 248.966C194.906 247.137 195.3 245.176 195.303 243.195V15.0591C195.3 13.0784 194.906 11.1177 194.144 9.28888C193.382 7.46009 192.266 5.79905 190.86 4.40065C189.454 3.00224 187.786 1.89385 185.951 1.13878C184.116 0.383714 182.15 -0.00323999 180.165 2.04334e-05Z" transform="translate(80.9062 190.782)" fill="white"/>
<path d="M184.986 0H7.16001C3.20564 0 0 3.19968 0 7.1467V247.79C0 251.737 3.20564 254.937 7.16001 254.937H184.986C188.94 254.937 192.146 251.737 192.146 247.79V7.1467C192.146 3.19968 188.94 0 184.986 0Z" transform="translate(82.7363 192.873)" fill="#06224C"/>
<path opacity="0.9" d="M172.621 0H0V206.707H172.621V0Z" transform="translate(92.4971 216.986)" fill="#183A6F"/>
<path d="M2.3449 4.68108C3.63995 4.68108 4.6898 3.63319 4.6898 2.34054C4.6898 1.0479 3.63995 0 2.3449 0C1.04984 0 0 1.0479 0 2.34054C0 3.63319 1.04984 4.68108 2.3449 4.68108Z" transform="translate(175.683 202.224)" fill="#F6F7F9"/>
<path d="M7.03113 14.0361C10.9143 14.0361 14.0623 10.894 14.0623 7.01806C14.0623 3.1421 10.9143 0 7.03113 0C3.14795 0 0 3.1421 0 7.01806C0 10.894 3.14795 14.0361 7.03113 14.0361Z" transform="translate(170.997 428.317)" fill="#F6F7F9"/>
<path d="M172.621 0H0V10.302H172.621V0Z" transform="translate(92.4971 216.986)" fill="#115EC6"/>
<path d="M2.2017 4.39522C3.41767 4.39522 4.4034 3.41132 4.4034 2.19761C4.4034 0.983904 3.41767 0 2.2017 0C0.985733 0 0 0.983904 0 2.19761C0 3.41132 0.985733 4.39522 2.2017 4.39522Z" transform="translate(95.6953 219.941)" fill="#F6F7F9"/>
<path d="M2.2017 4.39522C3.41767 4.39522 4.4034 3.41132 4.4034 2.19761C4.4034 0.983904 3.41767 0 2.2017 0C0.985733 0 0 0.983904 0 2.19761C0 3.41132 0.985733 4.39522 2.2017 4.39522Z" transform="translate(101.304 219.941)" fill="#F6F7F9"/>
<path d="M2.2017 4.39522C3.41767 4.39522 4.4034 3.41132 4.4034 2.19761C4.4034 0.983904 3.41767 0 2.2017 0C0.985733 0 0 0.983904 0 2.19761C0 3.41132 0.985733 4.39522 2.2017 4.39522Z" transform="translate(106.91 219.941)" fill="#F6F7F9"/>
<path opacity="0.5" d="M160.746 0H0V0.536002H160.746V0Z" transform="translate(97.6533 277.751)" fill="#365583"/>
<path opacity="0.5" d="M160.746 0H0V0.536002H160.746V0Z" transform="translate(97.6533 290.197)" fill="#365583"/>
<path opacity="0.5" d="M160.746 0H0V0.536002H160.746V0Z" transform="translate(97.6533 302.646)" fill="#365583"/>
<path opacity="0.5" d="M160.746 0H0V0.536002H160.746V0Z" transform="translate(97.6533 315.092)" fill="#365583"/>
<path opacity="0.5" d="M160.746 0H0V0.536002H160.746V0Z" transform="translate(97.6533 327.538)" fill="#365583"/>
<g opacity="0.3">
<path opacity="0.7" d="M160.943 42.7301H0V18.2527L14.7604 25.5137L30.0362 27.5827L43.4398 23.5484L59.6106 11.0309L67.7444 6.34269L73.6908 5.19923L79.3794 5.50295L88.734 10.1161L101.454 18.2026L111.435 19.4819L119.347 16.759L136.122 3.04807L144.686 0L153.647 1.38288L160.943 5.58872V42.7301Z" transform="translate(97.4561 285.344)" fill="#7466C5"/>
</g>
<path d="M28.0565 27.6663C13.561 27.6663 0.16826 18.8187 0 18.7044L0.400959 18.1112C0.608599 18.2505 21.2223 31.8614 38.7392 25.0435C45.1259 22.5421 49.6725 18.6901 54.0724 14.9488C58.6655 11.0431 63.0009 7.3554 68.915 5.75454C75.6956 3.92141 83.1062 5.57945 88.7375 10.1998C93.5526 14.1483 103.14 20.4874 113.268 18.5936C118.43 17.6252 122.78 13.8625 127.387 9.87819C136.219 2.23837 145.355 -5.6623 161.157 5.67236L160.739 6.25124C145.395 -4.75467 136.48 2.96019 127.856 10.4178C123.174 14.4664 118.752 18.2791 113.4 19.294C102.982 21.245 93.1946 14.7772 88.2829 10.7501C82.8305 6.27983 75.6633 4.67539 69.1012 6.44419C63.3446 8.00217 59.0772 11.6398 54.5342 15.4919C50.0914 19.2725 45.4982 23.1782 39.0005 25.7081C35.5068 27.0364 31.7949 27.7006 28.0565 27.6663V27.6663Z" transform="translate(97.4512 285.253)" fill="#6C63FF"/>
<path d="M3.98453 7.95428C6.18514 7.95428 7.96908 6.17365 7.96908 3.97714C7.96908 1.78063 6.18514 0 3.98453 0C1.78393 0 0 1.78063 0 3.97714C0 6.17365 1.78393 7.95428 3.98453 7.95428Z" transform="translate(171.019 286.531)" fill="#7466C5"/>
<g opacity="0.2">
<path d="M51.0795 6.03869e-10H0.816251C0.599771 6.03869e-10 0.392164 0.0858382 0.239089 0.238628C0.0860145 0.391419 0 0.598645 0 0.814723V34.7437C0.000211033 34.9068 0.049485 35.0661 0.141439 35.201C0.233393 35.3359 0.363799 35.4401 0.515762 35.5001C0.667725 35.5602 0.834259 35.5733 0.993788 35.5378C1.15332 35.5023 1.29848 35.4199 1.41052 35.3011L10.1207 26.0283C10.1968 25.947 10.2888 25.8822 10.391 25.838C10.4933 25.7937 10.6035 25.7709 10.7149 25.771H51.0795C51.296 25.771 51.5036 25.6851 51.6567 25.5324C51.8097 25.3796 51.8957 25.1723 51.8957 24.9563V0.807575C51.8939 0.592737 51.807 0.387341 51.6542 0.236093C51.5013 0.0848451 51.2947 -8.26539e-06 51.0795 6.03869e-10V6.03869e-10Z" transform="translate(175.896 237.879)" fill="#7466C5"/>
</g>
<path d="M28.6221 0H0V3.57335H28.6221V0Z" transform="translate(187.532 244.161)" fill="#8F9DB2"/>
<path d="M7.85811 0H0V3.57335H7.85811V0Z" transform="translate(187.532 252.08)" fill="#8F9DB2"/>
<g opacity="0.6">
<path opacity="0.2" d="M7.8581 0H0V3.57335H7.8581V0Z" transform="translate(110.957 353.369)" fill="#6C63FF"/>
</g>
<g opacity="0.6">
<path opacity="0.2" d="M7.8581 0H0V3.57335H7.8581V0Z" transform="translate(111.228 360.552)" fill="#6C63FF"/>
</g>
<g opacity="0.6">
<path opacity="0.2" d="M7.8581 0H0V3.57335H7.8581V0Z" transform="translate(111.228 367.46)" fill="#6C63FF"/>
</g>
<g opacity="0.6">
<path opacity="0.2" d="M7.8581 0H0V3.57335H7.8581V0Z" transform="translate(111.228 374.37)" fill="#6C63FF"/>
</g>
<g opacity="0.6">
<path opacity="0.2" d="M7.8581 0H0V3.57335H7.8581V0Z" transform="translate(111.228 381.278)" fill="#6C63FF"/>
</g>
<g opacity="0.6">
<path opacity="0.2" d="M7.8581 0H0V3.57335H7.8581V0Z" transform="translate(111.228 388.185)" fill="#6C63FF"/>
</g>
<g opacity="0.6">
<path opacity="0.2" d="M7.8581 0H0V3.57335H7.8581V0Z" transform="translate(111.228 395.096)" fill="#6C63FF"/>
</g>
<g opacity="0.6">
<path opacity="0.2" d="M7.8581 0H0V3.57335H7.8581V0Z" transform="translate(111.228 402.003)" fill="#6C63FF"/>
</g>
<g opacity="0.6">
<path opacity="0.2" d="M7.85811 0H0V3.57335H7.85811V0Z" transform="translate(126.024 405.577)" fill="#6C63FF"/>
</g>
<g opacity="0.6">
<path opacity="0.2" d="M7.8581 0H0V3.57335H7.8581V0Z" transform="translate(139.869 405.577)" fill="#6C63FF"/>
</g>
<g opacity="0.6">
<path opacity="0.2" d="M7.85811 0H0V3.57335H7.85811V0Z" transform="translate(153.711 405.577)" fill="#6C63FF"/>
</g>
<g opacity="0.6">
<path opacity="0.2" d="M7.85811 0H0V3.57335H7.85811V0Z" transform="translate(167.552 405.577)" fill="#6C63FF"/>
</g>
<g opacity="0.6">
<path opacity="0.2" d="M7.8581 0H0V3.57335H7.8581V0Z" transform="translate(181.396 405.577)" fill="#6C63FF"/>
</g>
<g opacity="0.6">
<path opacity="0.2" d="M7.85811 0H0V3.57335H7.85811V0Z" transform="translate(195.24 405.577)" fill="#6C63FF"/>
</g>
<g opacity="0.6">
<path opacity="0.2" d="M7.85809 0H0V3.57335H7.85809V0Z" transform="translate(209.08 405.577)" fill="#6C63FF"/>
</g>
<g opacity="0.6">
<path opacity="0.2" d="M7.85811 0H0V3.57335H7.85811V0Z" transform="translate(222.924 405.577)" fill="#6C63FF"/>
</g>
<g opacity="0.6">
<path opacity="0.2" d="M7.85811 0H0V3.57335H7.85811V0Z" transform="translate(236.769 405.577)" fill="#6C63FF"/>
</g>
<path d="M11.9321 0H0V3.57335H11.9321V0Z" transform="translate(204.222 252.08)" fill="#8F9DB2"/>
<path d="M7.85811 0H0V22.3942H7.85811V0Z" transform="translate(126.024 379.609)" fill="#7466C5"/>
<path d="M7.8581 0H0V32.7569H7.8581V0Z" transform="translate(139.869 369.246)" fill="#7466C5"/>
<path d="M7.85811 0H0V41.4508H7.85811V0Z" transform="translate(153.711 360.552)" fill="#7466C5"/>
<path d="M7.85811 0H0V36.9413H7.85811V0Z" transform="translate(167.552 365.058)" fill="#7466C5"/>
<path d="M7.8581 0H0V44.7848H7.8581V0Z" transform="translate(181.396 357.218)" fill="#7466C5"/>
<g opacity="0.3">
<path d="M7.85811 0H0V27.6327H7.85811V0Z" transform="translate(195.24 374.37)" fill="#7466C5"/>
</g>
<g opacity="0.3">
<path d="M7.85809 0H0V27.6327H7.85809V0Z" transform="translate(209.08 374.37)" fill="#7466C5"/>
</g>
<g opacity="0.3">
<path d="M7.85811 0H0V27.6327H7.85811V0Z" transform="translate(222.924 374.37)" fill="#7466C5"/>
</g>
<g opacity="0.3">
<path d="M7.85811 0H0V27.6327H7.85811V0Z" transform="translate(236.769 374.37)" fill="#7466C5"/>
</g>
<path d="M76.9914 45.1239C68.4817 40.2391 65.2669 39.0277 65.249 39.0206L65.0772 38.8955C64.149 38.184 63.4112 37.2549 62.9291 36.1905C62.9291 35.994 62.9291 35.801 62.9291 35.608V35.6652C63.0652 33.0781 64.9089 30.7233 66.6595 28.6686L71.1309 23.4158C71.6409 22.8972 72.0339 22.2759 72.2837 21.5934C72.3759 21.228 72.4169 20.8516 72.4054 20.4749C72.4054 20.3213 72.4054 20.1676 72.4054 20.0175C72.3839 18.7133 72.3446 17.4054 72.298 16.0869C72.2551 14.947 71.9615 13.5105 70.8195 13.2746C70.2252 13.1531 69.4412 13.3675 69.1262 12.8565C69.0205 12.6478 68.9938 12.408 69.0509 12.1812C69.0493 12.199 69.0493 12.217 69.0509 12.2348V12.1705C69.2733 11.2905 69.4159 10.3923 69.477 9.48688C69.4995 9.02666 69.4364 8.56627 69.2908 8.12901C68.6285 6.23513 66.3517 5.45972 64.3361 5.10238C62.3206 4.74505 60.0652 4.43774 58.8014 2.86547C58.4112 2.37949 58.1463 1.79346 57.7024 1.35394C57.1192 0.83834 56.4085 0.487938 55.6439 0.339113C53.1441 -0.277537 50.51 -0.0488039 48.1545 0.98946C47.1807 1.42183 46.2034 2.00786 45.1366 1.94354C44.0697 1.87922 43.0781 1.11096 41.9826 0.925142C40.2141 0.624981 38.5207 1.9221 37.6508 3.45507C37.134 4.36688 36.8581 5.39486 36.8488 6.44239C36.8488 6.49956 36.8488 6.56031 36.8488 6.61748C36.8226 7.7436 37.2345 8.83605 37.998 9.66555C38.7606 10.4553 39.899 10.9984 40.2141 12.0383C40.3429 12.4599 40.3107 12.9173 40.4253 13.3461C40.4253 13.3997 40.4575 13.4533 40.4754 13.5033L40.4181 13.5784C38.5926 15.9135 37.6043 18.7923 37.6114 21.7542C37.6301 24.6275 38.5638 27.4204 40.2776 29.729C41.9914 32.0377 44.3964 33.7424 47.1449 34.5968C47.1449 34.729 47.1449 34.8648 47.1449 34.997C47.1449 36.6193 46.6831 38.2738 45.2941 39.4923L33.2438 44.3306C33.2438 44.3306 25.98 43.4694 23.3594 54.068C22.9378 55.8276 22.7857 57.6408 22.9083 59.4459C23.005 61.0431 22.783 63.8589 20.9214 67.5002C17.9393 73.3247 18.6195 86.6962 24.7126 88.0219C30.4657 89.2726 32.7175 88.7366 32.9466 88.6901V88.9224C32.8535 91.4237 31.9407 113.075 28.622 115.694C27.7055 116.409 27.8774 116.909 28.622 117.238C28.622 117.238 28.622 117.377 28.6005 117.627C28.5003 119.21 27.9883 125.238 25.7687 128.669C23.1947 132.639 23.4632 155.547 23.4632 155.547L21.7341 169.065C21.7341 169.065 22.8081 177.406 21.7341 178.864C20.7675 180.161 19.4787 211.024 19.2281 217.709H19.1135C18.5832 217.741 18.0687 217.902 17.615 218.178C17.1614 218.454 16.7822 218.837 16.5108 219.292C15.0788 221.601 10.1026 225.864 10.1026 225.864C9.02863 227.397 5.02261 228.862 2.90683 229.555C2.62325 229.646 2.34975 229.766 2.0906 229.912C1.30019 230.343 0.665265 231.01 0.275538 231.821C0.137778 232.06 0.0493771 232.324 0.0155597 232.598C-0.0182577 232.871 0.00317574 233.149 0.0786205 233.414C0.622781 234.736 11.864 235.662 14.7065 234.34C16.944 233.296 25.8045 231.928 29.4812 231.392C30.1488 231.307 30.7694 231.004 31.2456 230.529C31.7218 230.054 32.0267 229.435 32.1125 228.769C32.1449 228.537 32.1299 228.301 32.0684 228.075C32.0069 227.849 31.9001 227.638 31.7545 227.454C31.0385 226.582 30.6805 224.206 30.5266 222.655C30.8255 222.535 31.1044 222.37 31.3535 222.165C31.0517 217.355 31.7425 212.534 33.3834 208.001C36.0935 200.854 36.9061 187.608 36.2474 179.003C36.2474 179.003 44.51 143.52 51.0113 140.207C51.1116 140.332 54.2656 144.377 54.6665 156.887C55.0746 169.598 59.6785 177.938 59.6785 177.938C59.6785 177.938 57.6451 199.521 59.6785 207.597L57.0186 220.339C56.8253 220.171 56.7 220.043 56.7 220.043C56.7 220.043 56.7787 220.4 56.8897 220.965L56.8324 221.233L56.947 221.261C57.2477 222.855 57.6952 225.632 57.5126 227.261C57.4052 228.186 57.1546 229.459 56.9685 230.706C56.6892 232.667 56.6105 234.568 57.6451 234.994C59.3384 235.673 69.2944 236.602 70.9877 234.418C71.3676 233.973 71.6151 233.43 71.7024 232.852C71.7897 232.274 71.7133 231.683 71.4818 231.145C71.3585 230.845 71.192 230.565 70.9877 230.313C70.9877 230.313 68.3457 226 69.0904 222.959C69.161 222.661 69.1694 222.353 69.1152 222.052C69.061 221.752 68.9453 221.465 68.7753 221.211C68.8899 219.718 69.4913 212.81 71.0558 206.943C72.7491 200.572 76.3255 186.603 73.6942 177.416C73.594 177.059 73.4794 176.702 73.3577 176.344C71.8393 171.33 71.3331 166.065 71.8684 160.854C70.8916 156.404 70.8916 151.796 71.8684 147.347C73.4937 139.932 74.6286 132.649 74.6286 132.649C74.6286 132.649 75.5272 122.855 74.7432 116.848L74.6895 116.462L75.1191 116.366C75.1191 116.366 72.8171 106.171 72.0044 99.6853C71.8111 98.1524 71.5605 96.212 71.2884 94.1395C72.0389 94.0198 72.7778 93.8369 73.4973 93.5928C80.7862 91.0664 83.0774 68.297 83.0774 68.297V61.0789C83.0774 61.0789 85.5261 50.0229 76.9914 45.1239ZM22.5038 220.958C22.2782 220.843 22.1458 220.768 22.1458 220.768L22.5038 220.958Z" transform="translate(290.242 229.257)" fill="url(#paint0_linear)"/>
<path d="M52.8659 64.7113C56.0378 73.8162 52.3361 88.592 50.6177 95.1884C48.8993 101.785 48.3694 109.707 48.3694 109.707C41.6283 110.761 36.738 109.439 36.738 109.439L39.5125 95.8602C37.5292 87.813 39.5125 66.3051 39.5125 66.3051C39.5125 66.3051 35.0196 57.9934 34.6222 45.3259C34.232 32.8549 31.1532 28.8278 31.0422 28.7027C24.6985 32.0009 16.6327 67.3663 16.6327 67.3663C17.295 75.9424 16.5002 89.1352 13.8582 96.2604C12.2557 100.786 11.5812 105.588 11.8749 110.379C10.9512 111.158 9.66601 111.29 8.27697 111.068C4.51438 110.443 0 107.198 0 107.198C0 107.198 1.432 68.6742 2.506 67.2198C3.58 65.7655 2.506 57.4539 2.506 57.4539L4.22082 43.9966C4.22082 43.9966 3.95949 21.1665 6.46907 17.1965C8.63855 13.7768 9.13616 7.77004 9.23282 6.19419C9.23282 5.94406 9.2543 5.8047 9.2543 5.8047L13.0778 1.23082C13.0778 1.23082 50.095 -1.53852 52.8695 1.23082C53.5533 1.91333 53.9721 3.45701 54.2227 5.40449C54.9853 11.3898 54.1118 21.1522 54.1118 21.1522C54.1118 21.1522 53.0019 28.4097 51.416 35.803C50.4608 40.238 50.4608 44.8251 51.416 49.2602C50.8896 54.4557 51.3821 59.7038 52.8659 64.7113V64.7113Z" transform="translate(309.955 341.083)" fill="#65617D"/>
<path d="M13.9477 16.3142C12.2937 18.4904 2.57761 17.5649 0.923647 16.8896C-0.0859139 16.4715 -0.0071635 14.5776 0.264917 12.623C0.436757 11.3794 0.69093 10.1216 0.79475 9.18899C1.05967 6.81271 0 1.99584 0 1.99584C0 1.99584 2.1838 4.30422 2.71006 1.99584C2.94276 0.988156 3.75543 0.470021 4.59673 0.209166C5.7301 -0.130594 6.94784 -0.0545562 8.02994 0.423558C9.74476 1.16681 12.6124 2.75339 12.0968 4.8974C11.3808 7.9276 13.9477 12.2263 13.9477 12.2263C14.1466 12.4783 14.3082 12.7575 14.4274 13.0554C14.6539 13.5904 14.7289 14.1772 14.6444 14.7518C14.5598 15.3264 14.3188 15.8669 13.9477 16.3142V16.3142Z" transform="translate(346.559 447.34)" fill="#A27772"/>
<path opacity="0.1" d="M13.8601 3.69127C12.2061 5.86744 2.49003 4.94194 0.836065 4.26658C-0.173496 3.8485 -0.0947452 1.95462 0.177335 0C1.21912 0.485975 2.9948 0.89333 5.95188 0.618182C6.64321 0.553872 7.33787 0.532394 8.03186 0.553865C10.135 0.65033 12.2422 0.60856 14.3399 0.428806C14.5671 0.964274 14.6425 1.55175 14.5579 2.12711C14.4733 2.70246 14.2319 3.24356 13.8601 3.69127V3.69127Z" transform="translate(346.646 459.963)" fill="black"/>
<path opacity="0.1" d="M8.35572 41.2007C9.01802 49.7767 8.22326 62.9695 5.58121 70.0948C3.97874 74.6206 3.30427 79.4219 3.5979 84.2131C2.67426 84.9921 1.38904 85.1243 0 84.9027C0.798341 79.3283 4.19575 55.3583 6.3903 36.416C8.85334 14.8437 20.4526 0 20.4526 0L22.7652 2.54065C16.4143 5.83527 8.35572 41.2007 8.35572 41.2007Z" transform="translate(318.241 367.234)" fill="black"/>
<path d="M26.9371 15.8514L25.3225 23.7663L17.4179 37.027L7.66954 32.8712C7.66954 32.8712 -5.57647 19.0174 2.74704 17.0377C3.74419 16.8251 4.68568 16.4064 5.51081 15.8085C7.14687 14.5793 7.65881 12.789 7.65881 11.0381C7.65881 8.14723 6.30556 5.36002 6.30556 5.36002L23.3571 0C22.6528 2.23654 22.2413 4.55463 22.1328 6.89656C22.0039 11.5419 23.7294 13.8146 25.1435 14.9044C25.6729 15.3352 26.2825 15.6571 26.9371 15.8514V15.8514Z" transform="translate(329.604 253.906)" fill="#FBBEBE"/>
<path opacity="0.1" d="M17.0515 0C16.3472 2.23654 15.9357 4.55464 15.8272 6.89657C15.5172 7.26557 15.1861 7.61634 14.8355 7.94713C13.0755 9.62649 10.8928 10.7989 8.51907 11.34C6.14534 11.881 3.66912 11.7705 1.35323 11.0202C1.35323 8.12936 0 5.34216 0 5.34216L17.0515 0Z" transform="translate(335.922 253.924)" fill="black"/>
<path d="M26.9646 13.4609C26.9639 16.1229 26.1722 18.7249 24.6897 20.9378C23.2072 23.1507 21.1004 24.875 18.636 25.8925C16.1715 26.9101 13.46 27.1753 10.8446 26.6545C8.22911 26.1336 5.82716 24.8503 3.94256 22.9667C2.05795 21.0831 0.775368 18.6839 0.257059 16.0726C-0.26125 13.4613 0.00800125 10.7552 1.03075 8.2967C2.05349 5.83817 3.78378 3.73764 6.00274 2.26082C8.2217 0.784 10.8296 -0.0027583 13.4966 6.90564e-05C15.2684 -0.00560822 17.0237 0.338824 18.6615 1.0135C20.2992 1.68818 21.787 2.67976 23.0389 3.93108C24.2909 5.1824 25.2824 6.6687 25.9561 8.3043C26.6299 9.93989 26.9726 11.6924 26.9646 13.4609V13.4609Z" transform="translate(327.961 238.287)" fill="#FBBEBE"/>
<path opacity="0.1" d="M26.9371 0.929072L25.3225 8.84403L17.4179 22.1047L7.66954 17.9489C7.66954 17.9489 -5.57647 4.09506 2.74704 2.11543C3.74419 1.90285 4.68568 1.48411 5.51081 0.886194C4.00721 5.01341 10.2149 13.5966 10.2149 13.5966C10.9309 14.6686 12.5956 13.9897 12.5956 13.9897C16.5909 13.3893 23.955 1.90817 25.1543 0C25.6819 0.423204 26.2876 0.738869 26.9371 0.929072V0.929072Z" transform="translate(329.604 268.828)" fill="black"/>
<path opacity="0.1" d="M44.9899 5.40449C42.645 5.93692 29.6567 8.8099 24.7306 8.09165C19.3141 7.29837 8.77457 6.77308 8.77457 6.77308C8.77457 6.77308 2.06566 7.13041 0 6.1942C0 5.94406 0.0214791 5.8047 0.0214791 5.8047L3.84492 1.23082C3.84492 1.23082 40.8622 -1.53852 43.6367 1.23082C44.3204 1.90618 44.7393 3.44987 44.9899 5.40449Z" transform="translate(319.183 341.105)" fill="black"/>
<path d="M29.8513 13.8503C29.8513 13.8503 22.8775 4.20225 25.5052 0.453811L13.7234 5.27426C13.7234 5.27426 6.63139 4.41666 4.05736 14.9795C3.6465 16.7347 3.49812 18.5409 3.61703 20.3395C3.71011 21.9332 3.49529 24.7383 1.67665 28.3652C-1.23389 34.1719 -0.57158 47.4969 5.37839 48.8191C11.3284 50.1412 13.4406 49.4766 13.4406 49.4766C13.4406 49.4766 12.6494 73.6253 9.21258 76.3946C5.77577 79.1639 17.9728 78.5065 17.9728 78.5065C17.9728 78.5065 28.5124 79.0353 33.9325 79.825C39.3526 80.6147 54.5533 77.0557 54.5533 77.0557C54.5533 77.0557 52.3051 66.8931 51.5139 60.4289C50.7227 53.9647 48.8683 40.1966 48.8683 40.1966L62.3541 21.9725C62.3541 21.9725 64.7313 10.9559 56.4042 6.07469C48.0771 1.1935 44.9482 0 44.9482 0C44.9482 0 36.5924 13.5787 32.232 14.2469C32.232 14.2469 30.5744 14.9116 29.8513 13.8503Z" transform="translate(309.966 268.968)" fill="#115EC6"/>
<path opacity="0.1" d="M2.24823 0C2.24823 0 2.11578 4.35591 2.90696 6.07469C3.69814 7.79347 6.60869 17.2914 6.60869 17.2914H0C0 17.2914 3.58 13.4644 3.30434 11.617C3.02868 9.76954 2.24823 0 2.24823 0Z" transform="translate(322.104 286.645)" fill="black"/>
<path d="M21.0755 18.4956C21.0755 18.4956 6.47622 14.9223 5.11582 11.8957C3.75542 8.86905 0 2.07254 0 2.07254L1.5394 0L8.64213 5.5637C8.64213 5.5637 17.1017 12.2923 21.0683 12.9534C25.035 13.6145 21.0755 18.4956 21.0755 18.4956Z" transform="translate(322.843 301.006)" fill="#FBBEBE"/>
<path opacity="0.05" d="M21.0755 18.4956C21.0755 18.4956 6.47622 14.9223 5.11582 11.8957C3.75542 8.86905 0 2.07254 0 2.07254L1.5394 0L8.64213 5.5637C8.64213 5.5637 17.1017 12.2923 21.0683 12.9534C25.035 13.6145 21.0755 18.4956 21.0755 18.4956Z" transform="translate(322.843 301.006)" fill="black"/>
<path d="M26.3739 0.0675099V7.97175H25.0994C18.8099 7.97296 12.624 9.57156 7.12419 12.6171L4.73992 13.9392L4.09909 14.2966L0 5.08448L3.83417 1.65407H4.03107C4.96903 1.7434 9.02517 2.08287 10.7436 1.50399C12.3761 0.950123 14.4023 -0.804391 19.2103 0.431987C21.5803 1.03588 23.603 3.68731 25.9013 2.85829L26.3739 0.0675099Z" transform="translate(330.166 302.282)" fill="#FBBEBE"/>
<path opacity="0.1" d="M28.7849 8.97825L31.4305 11.9441V19.1373C31.4305 19.1373 29.1823 41.8316 22.0438 44.3401C14.9052 46.8486 2.164 42.8857 2.164 42.8857C2.164 42.8857 -1.12961 34.1775 0.409787 33.6522C1.94919 33.1269 14.0138 29.9431 14.0138 29.9431C14.0138 29.9431 13.8455 16.6288 16.4876 12.6695C16.4876 12.6695 14.7692 0.269999 20.7191 0.00557082C26.6691 -0.258857 28.7849 8.97825 28.7849 8.97825Z" transform="translate(340.511 278.989)" fill="black"/>
<path d="M28.7995 8.97825L31.4452 11.9441V19.1373C31.4452 19.1373 29.2041 41.8316 22.0441 44.3401C14.8841 46.8486 2.16075 42.8857 2.16075 42.8857C2.16075 42.8857 -1.12928 34.1775 0.410125 33.6522C1.94953 33.1269 14.0141 29.9431 14.0141 29.9431C14.0141 29.9431 13.8423 16.6288 16.4879 12.6695C16.4879 12.6695 14.7695 0.269999 20.7195 0.00557082C26.6695 -0.258857 28.7995 8.97825 28.7995 8.97825Z" transform="translate(340.895 278.989)" fill="#115EC6"/>
<path opacity="0.1" d="M20.5098 19.1752C20.5635 18.3069 20.5814 17.3886 20.2091 16.606C19.8368 15.8234 18.9633 15.1981 18.1112 15.3982C16.98 15.6626 16.4931 17.1313 15.3833 17.485C14.4489 17.7816 13.4286 17.1277 12.9847 16.2487C12.5408 15.3696 12.5264 14.3548 12.5228 13.39C12.5228 12.2894 12.5228 11.1852 12.5228 10.0846C12.5228 8.88399 12.4835 7.58329 11.7424 6.64708C10.8223 5.47145 8.65645 4.96046 7.21013 5.00691C6.24672 5.01809 5.32275 5.39055 4.62177 6.05033C3.84849 6.70425 2.9535 7.19023 1.8974 7.01513C1.45867 6.94876 1.0477 6.75987 0.711958 6.47028C0.376214 6.18069 0.129394 5.8022 0 5.37854V5.33566C1.12398 3.85342 2.54344 2.61969 4.16888 1.71226C5.79432 0.804824 7.59049 0.243369 9.44414 0.0632914C11.2978 -0.116786 13.1687 0.0884161 14.939 0.665967C16.7092 1.24352 18.3403 2.18089 19.7296 3.41898C21.1188 4.65706 22.236 6.16901 23.0107 7.8595C23.7854 9.55 24.2008 11.3824 24.2307 13.2411C24.2606 15.0998 23.9044 16.9445 23.1845 18.659C22.4646 20.3734 21.3967 21.9204 20.048 23.2024C20.2777 21.8697 20.4319 20.5252 20.5098 19.1752Z" transform="translate(330.718 238.29)" fill="black"/>
<path d="M5.37795 14.8263C4.93895 14.7592 4.52786 14.5696 4.19214 14.2794C3.85642 13.9892 3.60974 13.6102 3.48053 13.1861C3.36955 12.7609 3.39821 12.3071 3.27291 11.8818C2.96503 10.8456 1.84091 10.306 1.12491 9.51984C-0.364375 7.94042 -0.267716 5.34617 0.788385 3.44515C1.64043 1.91576 3.29439 0.625781 5.01637 0.922368C6.09037 1.10818 7.01042 1.86931 8.09516 1.9372C9.1799 2.0051 10.0892 1.41907 11.0415 0.986692C13.3332 -0.0493255 15.9097 -0.277381 18.3483 0.339916C19.0979 0.490206 19.793 0.839563 20.3603 1.35117C20.744 1.83381 21.1025 2.33594 21.4343 2.85555C22.6694 4.42425 24.8746 4.73156 26.8401 5.08532C28.8055 5.43908 31.0251 6.2145 31.6731 8.10123C32.0991 9.3519 31.673 10.7098 31.4403 12.0105C31.3575 12.2755 31.3753 12.5617 31.4905 12.8145C31.7984 13.3219 32.5645 13.1111 33.1444 13.2326C34.2614 13.4648 34.5478 14.8977 34.5764 16.0341C34.6242 17.3348 34.66 18.6355 34.6839 19.9362C34.7502 20.5393 34.6721 21.1495 34.4562 21.7167C34.2402 22.2838 33.8925 22.7917 33.4416 23.1986L29.0776 28.4336C27.1408 30.7563 25.0859 33.4613 25.4761 36.4557C24.5596 36.8667 23.4713 36.0734 23.1706 35.1157C22.8698 34.1581 23.1133 33.129 23.3138 32.1463C23.667 30.4474 23.8979 28.7254 24.0047 26.9935C24.0584 26.1216 24.0763 25.2068 23.704 24.4243C23.3316 23.6417 22.4581 22.9949 21.6061 23.2129C20.4748 23.4773 19.9879 24.946 18.8781 25.2997C17.9473 25.5963 16.9234 24.9424 16.4795 24.0634C16.0356 23.1843 16.0213 22.1695 16.0177 21.2047V17.8958C16.0177 16.6987 15.9783 15.3944 15.2373 14.4582C14.3172 13.2826 12.1513 12.7716 10.705 12.818C9.7417 12.8299 8.818 13.2023 8.11664 13.8615C7.32904 14.5154 6.43405 14.9978 5.37795 14.8263Z" transform="translate(327.23 230.071)" fill="#7C5C5C"/>
<path opacity="0.1" d="M0 0L4.13848 16.9734C4.13848 16.9734 7.40345 16.9555 0 0Z" transform="translate(335.654 286.316)" fill="black"/>
<path opacity="0.1" d="M3.7944 0C3.7944 0 -1.62572 8.86191 0.490064 18.0204L1.49963 18.0954C1.49963 18.0954 -0.304704 13.8539 3.7944 0Z" transform="translate(346.005 283.479)" fill="black"/>
<path opacity="0.1" d="M0 0.470954C0 0.470954 6.6552 -1.72666 7.1385 3.37251C7.1385 3.37251 5.88195 -0.122222 0 0.470954Z" transform="translate(353.235 333.149)" fill="black"/>
<path opacity="0.1" d="M11.3665 0C11.3665 0 10.0455 9.23711 12.4405 12.9319C12.4405 12.9319 7.60035 14.9116 0.805501 14.5149L0 0H11.3665Z" transform="translate(322.635 304.344)" fill="black"/>
<path opacity="0.1" d="M4.73992 12.2852L4.09909 12.6425L0 3.43042L3.83417 0H4.03106C3.9702 0.443095 2.90338 8.37593 4.73992 12.2852Z" transform="translate(330.166 303.933)" fill="black"/>
<path d="M15.1864 0C15.1864 0 13.8653 9.23353 16.2604 12.9284C16.2604 12.9284 11.4202 14.908 4.62536 14.5114L0 0H15.1864Z" transform="translate(318.813 303.933)" fill="#115EC6"/>
<path d="M31.3416 11.0306C31.265 11.6887 30.9712 12.3026 30.5064 12.7755C30.0417 13.2485 29.4325 13.5536 28.7748 13.6428C25.1948 14.1788 16.5384 15.5438 14.3546 16.5801C11.58 17.8986 0.607338 16.9767 0.0774979 15.6581C-0.0718372 15.125 -0.00362957 14.5546 0.267227 14.0716C0.649185 13.2651 1.27534 12.5989 2.05723 12.167C2.30962 12.0218 2.57587 11.9021 2.852 11.8096C4.91766 11.12 8.81986 9.66562 9.87596 8.12908C9.87596 8.12908 14.7412 3.88037 16.1266 1.58271C16.388 1.13153 16.7566 0.751465 17.1998 0.476027C17.6431 0.200588 18.1475 0.0382404 18.6684 0.00329519C19.8284 -0.050305 21.1172 0.532153 21.6434 3.06566C21.6434 3.06566 27.9872 6.67831 29.702 3.50875C29.702 3.50875 29.9669 8.37566 31.0195 9.70494C31.1586 9.89353 31.2587 10.1079 31.3141 10.3355C31.3694 10.5631 31.3787 10.7994 31.3416 11.0306V11.0306Z" transform="translate(291.225 447.006)" fill="#A27772"/>
<path opacity="0.1" d="M31.3417 1.31857C31.265 1.97661 30.9712 2.59048 30.5064 3.06343C30.0417 3.53638 29.4325 3.84149 28.7748 3.93068C25.1948 4.46668 16.5384 5.83171 14.3546 6.86798C11.58 8.18655 0.607338 7.26462 0.0774979 5.94606C-0.0718372 5.41296 -0.00362957 4.84252 0.267227 4.35949C0.649185 3.55307 1.27534 2.88683 2.05723 2.45489C3.84723 3.64124 7.81745 4.799 16.5527 3.43756C24.8833 2.14043 29.0075 0.868323 31.0195 0C31.1577 0.187694 31.2573 0.400842 31.3126 0.627146C31.3679 0.85345 31.3778 1.08843 31.3417 1.31857V1.31857Z" transform="translate(291.225 456.718)" fill="black"/>
<g opacity="0.1">
<path opacity="0.1" d="M0.0375238 3.06236V2.99804C0.227264 2.00822 0.510089 0.986244 0.445649 0C0.360803 0.809443 0.224482 1.61269 0.0375238 2.40487C-0.0125079 2.62119 -0.0125079 2.84604 0.0375238 3.06236V3.06236Z" transform="translate(358.605 239.212)" fill="black"/>
<path opacity="0.1" d="M23.6928 18.2848C23.9012 18.7607 24.012 19.2734 24.0186 19.7928C24.0799 19.0765 23.9682 18.3559 23.6928 17.6916C23.3348 16.9019 22.4505 16.2802 21.5985 16.4803C20.4672 16.7447 19.9803 18.2134 18.8705 18.5671C17.9361 18.8637 16.9159 18.2098 16.4684 17.3307C16.0209 16.4517 16.0137 15.4369 16.0101 14.4721C16.0101 13.3679 16.0101 12.2673 16.0101 11.1631C16.0101 9.96606 15.9707 8.66179 15.2297 7.72558C14.3096 6.54995 12.1401 6.03896 10.6974 6.08541C9.73398 6.09659 8.81001 6.46905 8.10904 7.12883C7.33218 7.78632 6.44076 8.26873 5.38466 8.09721C4.94566 8.03015 4.53459 7.84058 4.19887 7.55038C3.86315 7.26017 3.61647 6.88115 3.48726 6.45704C3.37628 6.03181 3.40492 5.578 3.27962 5.15277C2.96816 4.1165 1.84762 3.57692 1.13161 2.79078C0.435502 2.02495 0.0400997 1.03383 0.0182393 0C-0.0369316 0.610006 0.0333782 1.22483 0.224837 1.80674C0.416295 2.38865 0.724858 2.92537 1.13161 3.38396C1.87626 4.1701 2.98248 4.71324 3.27962 5.74952C3.40492 6.17117 3.37628 6.62499 3.48726 7.05021C3.61647 7.47433 3.86315 7.85335 4.19887 8.14355C4.53459 8.43376 4.94566 8.62332 5.38466 8.69038C6.45866 8.8619 7.33218 8.3795 8.10904 7.72201C8.81001 7.06223 9.73398 6.68976 10.6974 6.67859C12.1294 6.63213 14.3096 7.1467 15.2297 8.31875C15.9707 9.26212 16.0065 10.5592 16.0101 11.7563C16.0101 12.8605 16.0101 13.9611 16.0101 15.0652C16.0101 16.0443 16.0101 17.0627 16.4684 17.9239C16.9266 18.7851 17.9361 19.4569 18.8705 19.1603C19.9803 18.803 20.4672 17.3379 21.5985 17.0735C22.4613 16.8769 23.3241 17.4951 23.6928 18.2848Z" transform="translate(327.231 236.339)" fill="black"/>
<path opacity="0.1" d="M9.13648 0.836162C8.89522 1.51409 8.512 2.13292 8.01235 2.65142C6.55887 4.3976 5.10419 6.14259 3.64833 7.88638C1.81178 10.0911 -0.135753 12.6425 0.00744703 15.4547C0.139907 12.8748 1.94066 10.5271 3.64833 8.47955L8.01235 3.24817C8.51131 2.72776 8.89439 2.10792 9.13648 1.42934C9.24454 0.961056 9.28312 0.479475 9.25102 0C9.24738 0.28236 9.20893 0.563196 9.13648 0.836162V0.836162Z" transform="translate(352.652 250.154)" fill="black"/>
<path opacity="0.1" d="M0.141905 0.714669C0.0713454 0.482236 0.0281003 0.242403 0.0130302 0C-0.0244925 0.437788 0.019193 0.878734 0.141905 1.3007C0.442625 2.25836 1.53453 3.04807 2.45101 2.63713C2.42595 2.44417 2.41163 2.25121 2.40447 2.05825C1.48083 2.43703 0.421145 1.65803 0.141905 0.714669Z" transform="translate(350.267 264.008)" fill="black"/>
</g>
<path opacity="0.1" d="M0 0C0 0 1.38187 2.4263 6.38671 0.28944Z" transform="translate(306.467 449.779)" fill="black"/>
<path opacity="0.1" d="M0 0C0 0 4.31749 5.07416 9.75909 1.66162Z" transform="translate(348.798 450.375)" fill="black"/>
<path opacity="0.1" d="M3.15443 0C3.15443 0 0.100696 1.9046 0.00403548 2.99447C-0.0926246 4.08434 1.57922 2.20117 1.57922 2.20117L3.15443 0Z" transform="translate(358.214 390.354)" fill="black"/>
<path opacity="0.1" d="M5.47761 0C4.41657 0.881696 3.09748 1.3958 1.71861 1.46506C-0.56185 1.56512 -0.372107 4.53456 1.11717 3.64122C2.60646 2.74788 5.47761 0 5.47761 0Z" transform="translate(357.104 404.944)" fill="black"/>
<path opacity="0.1" d="M2.65275 0C2.65275 0 1.18856 7.18244 0 5.79598Z" transform="translate(360.496 406.849)" fill="black"/>
<path opacity="0.9" d="M5.41779 0C5.41779 0 7.38322 2.56566 4.50848 6.43203C1.63373 10.2984 -0.736229 13.5787 0.212472 15.9943C0.212472 15.9943 4.54786 8.79759 8.08848 8.69754C11.6291 8.59748 9.3021 4.32732 5.41779 0Z" transform="translate(56.542 440.26)" fill="#7466C5"/>
<path opacity="0.1" d="M5.29841 0C5.47065 0.247035 5.60573 0.517908 5.69936 0.804003C9.14333 4.84189 10.9799 8.61177 7.66837 8.70825C4.58598 8.79401 0.866361 14.3006 0 15.6906C0.0292107 15.7971 0.0638658 15.9021 0.103823 16.005C0.103823 16.005 4.43921 8.8083 7.97983 8.70825C11.5205 8.60819 9.18271 4.32732 5.29841 0Z" transform="translate(56.6611 440.26)" fill="black"/>
<path d="M0.454662 0.57688C0.454662 1.48094 0.35442 2.21348 0.22912 2.21348C0.10382 2.21348 0 1.48094 0 0.57688C0 -0.327177 0.128877 0.101618 0.254177 0.101618C0.379477 0.101618 0.454662 -0.32003 0.454662 0.57688Z" transform="translate(65.1611 442.952)" fill="#FFD037"/>
<path d="M1.55441 0.617805C0.759645 1.05018 0.0651239 1.31102 0.00426387 1.20382C-0.0565962 1.09662 0.541265 0.653522 1.33603 0.221147C2.13079 -0.211228 1.81574 0.103227 1.8766 0.221147C1.93746 0.339068 2.34917 0.18543 1.55441 0.617805Z" transform="translate(65.3184 443.99)" fill="#FFD037"/>
<path d="M4.41621 0C4.41621 0 2.45079 2.56566 5.32553 6.43203C8.20027 10.2984 10.5702 13.5787 9.62154 15.9943C9.62154 15.9943 5.28615 8.79759 1.74553 8.69754C-1.7951 8.59748 0.535482 4.32732 4.41621 0Z" transform="translate(47.1543 440.26)" fill="#7466C5"/>
<path opacity="0.1" d="M4.42399 0C4.25332 0.247963 4.11835 0.518602 4.02303 0.804003C0.579068 4.84189 -1.25747 8.61177 2.05403 8.70825C5.13999 8.79401 8.85604 14.3006 9.7224 15.6906C9.69478 15.7976 9.6601 15.9026 9.61858 16.005C9.61858 16.005 5.28319 8.8083 1.74257 8.70825C-1.79805 8.60819 0.543266 4.32732 4.42399 0Z" transform="translate(47.1455 440.26)" fill="#115EC6"/>
<path d="M0 0.57688C0 1.48094 0.100236 2.21348 0.225537 2.21348C0.350837 2.21348 0.454662 1.48094 0.454662 0.57688C0.454662 -0.327177 0.325779 0.101618 0.200479 0.101618C0.0751792 0.101618 0 -0.32003 0 0.57688Z" transform="translate(47.915 442.952)" fill="#FFD037"/>
<path d="M0.484471 0.617805C1.27923 1.05018 1.97017 1.31102 2.03103 1.20382C2.09189 1.09662 1.49403 0.653522 0.699268 0.221147C-0.0954927 -0.211228 0.21955 0.103227 0.15869 0.221147C0.0978295 0.339068 -0.31029 0.18543 0.484471 0.617805Z" transform="translate(46.1777 443.99)" fill="#FFD037"/>
<path opacity="0.3" d="M0 2.96542C0 2.96542 5.49889 2.79747 7.16001 1.61826C8.82113 0.43906 15.616 -0.965267 16.0277 0.925034C16.4394 2.81534 24.2903 10.3194 18.0826 10.3694C11.8749 10.4194 3.65876 9.40458 2.0048 8.3969C0.350837 7.38921 0 2.96542 0 2.96542Z" transform="translate(48.543 452.963)" fill="#183A6F"/>
<path opacity="0.2" d="M18.19 6.75364C11.9823 6.80366 3.76616 5.78883 2.1122 4.78114C0.852038 4.01644 0.350838 1.26854 0.182578 0H0C0 0 0.357999 4.42738 2.00122 5.43149C3.64444 6.4356 11.8713 7.45399 18.079 7.40397C19.869 7.40397 20.4919 6.75363 20.4561 5.81027C20.2091 6.38558 19.5253 6.74292 18.19 6.75364Z" transform="translate(48.543 455.921)" fill="#183A6F"/>
<path d="M65.96 23.92V43.32C65.96 44.52 65.24 45.16 63.88 45.16C61.64 45.16 59.52 45.12 57.6 45.04L58 46.4C59.76 46.44 61.88 46.48 64.28 46.48C66.28 46.48 67.28 45.52 67.28 43.6V24.64C72.08 21.52 76.4 18.24 80.16 14.72V13.4H50.92V14.72H78.28C74.44 18.24 70.32 21.28 65.96 23.92ZM109.36 31.12H114.88V37.32H105.88V38.64H114.88V46.92H116.2V38.64H123.76V37.32H116.2V31.12H122.92V29.84H116.2V25.68H114.88V29.84H109.88C110.24 28.8 110.56 27.64 110.8 26.36L109.6 26.12C108.92 29.56 107.68 32.28 105.88 34.28L106.72 35.28C107.76 34.16 108.64 32.76 109.36 31.12ZM112.2 14.6C111.96 16.2 111.48 17.64 110.76 18.96C109.8 20.64 108.36 22.08 106.4 23.32L107.16 24.4C109.16 23.08 110.64 21.6 111.68 19.96C112.56 18.52 113.16 16.72 113.52 14.6H120.8C120.72 18.2 120.52 20.44 120.2 21.32C119.84 22.16 119 22.6 117.68 22.64C116.76 22.64 115.64 22.6 114.28 22.52L114.64 23.8C115.92 23.8 117.04 23.84 118 23.84C119.52 23.84 120.56 23.32 121.16 22.36C121.76 21.4 122.08 18.4 122.12 13.4H106.24V14.6H112.2ZM91.88 29.16H96.8V35.56H91.84C91.84 35.08 91.88 34.56 91.88 34.08V29.16ZM91.76 36.8H96.8V46.44H98.04V36.8H103.08V43.64C103.08 44.8 102.56 45.4 101.6 45.4C100.8 45.4 99.88 45.36 98.92 45.32L99.24 46.56H102.04C103.56 46.56 104.32 45.72 104.32 44.08V20.44H98.76C99.84 19 100.92 17.16 102.04 14.92V13.88H94.32C94.8 12.84 95.24 11.72 95.64 10.6L94.36 10.28C92.92 14.44 90.88 18 88.24 20.92L89.08 21.92C90.92 19.92 92.48 17.68 93.76 15.12H100.56C99.56 17.08 98.44 18.84 97.24 20.44H90.6V34.16C90.52 39.04 89.64 43.04 87.96 46.2L88.92 47.12C90.52 44.4 91.44 40.96 91.76 36.8ZM103.08 35.56H98.04V29.16H103.08V35.56ZM103.08 27.88H98.04V21.68H103.08V27.88ZM96.8 21.68V27.88H91.88V21.68H96.8ZM143.28 13.64V14.96H161.88V13.64H143.28ZM142.04 24.04V25.4H155.48V43.4C155.48 44.72 154.68 45.4 153.12 45.4C151.28 45.4 149.36 45.36 147.36 45.32L147.64 46.64H153.6C155.76 46.64 156.88 45.64 156.88 43.72V25.4H163.72V24.04H142.04ZM137.76 11C135.8 15 132.52 18.6 127.92 21.84L128.36 23.2C133.08 20 136.64 16.12 139 11.56L137.76 11ZM139.68 20.04C137.36 24.72 133.52 28.96 128.08 32.72L128.48 34.12C130.76 32.56 132.84 30.84 134.72 29V46.84H136.04V27.6C137.96 25.44 139.6 23.12 140.92 20.64L139.68 20.04ZM181 11.08V43.4H168.48V44.76H203.52V43.4H190.92V11.08H189.6V43.4H182.32V11.08H181ZM200.84 18.04C199.04 25.56 196.92 31.72 194.48 36.56L195.72 37.04C198.32 31.68 200.44 25.48 202.08 18.4L200.84 18.04ZM170.96 17.96L169.76 18.36C172.08 24.44 173.96 30.76 175.48 37.32L176.76 37C175.04 29.84 173.12 23.48 170.96 17.96ZM239.4 46C240.68 46 241.56 45.68 242.12 45.08C242.8 44.28 243.24 42.36 243.44 39.32L242.16 38.92C241.96 41.72 241.64 43.4 241.16 44.04C240.76 44.44 240.08 44.68 239.12 44.68H232.36C231.12 44.68 230.52 43.96 230.52 42.6V36.48H237.68V26.88H214.36V36.48H221.92C220.96 39.2 219.76 41.16 218.28 42.36C216.44 43.88 213.04 45 208.16 45.68L208.64 46.96C214 46.12 217.6 44.84 219.44 43.12C220.96 41.84 222.24 39.6 223.36 36.48H229.12V42.88C229.12 44.96 230.04 46 231.96 46H239.4ZM217.36 15.28L219.84 21.4H209.28V22.72H242.72V21.4H232.24L234.64 15.28H240.68V14.04H227.2C226.64 12.56 226.08 11.24 225.44 10.08L223.96 10.32C224.64 11.4 225.28 12.64 225.84 14.04H211.08V15.28H217.36ZM221.28 21.4L218.76 15.28H233.24L230.8 21.4H221.28ZM236.36 35.24H215.68V28.12H236.36V35.24ZM278 36.92V29.64H283.56V28.28H278V21.12H267.76C269.92 19.68 272.08 17.84 274.28 15.52V14.44H258.88C259.72 13.28 260.52 12.08 261.24 10.8L259.88 10.48C257.44 14.8 253.92 18.44 249.36 21.48L250.24 22.48C253.16 20.52 255.72 18.28 257.88 15.72H272.4C270.32 17.72 268.08 19.52 265.6 21.12H254.12V22.48H264.72V28.28H248.56V29.64H264.72V35.6H253.44V36.92H264.72V43.44C264.72 44.64 264.04 45.28 262.76 45.28C260.84 45.28 258.88 45.24 256.8 45.16L257.08 46.48H263.24C265.08 46.48 266.04 45.56 266.04 43.8V36.92H278ZM266.04 22.48H276.6V28.28H266.04V22.48ZM266.04 29.64H276.6V35.6H266.04V29.64ZM295.64 24.36C296.88 25.96 298.36 28.16 300.08 30.88L300.88 29.72C299.12 27.16 297.36 24.88 295.64 22.84V20.2H300.56V18.88H295.64V10.56H294.32V18.88H288.44V20.2H294.24C293.04 25.72 290.92 30.64 287.8 34.96L288.4 36.36C290.96 32.68 292.96 28.44 294.32 23.68V46.64H295.64V24.36ZM320.72 32.44H304.44V46.72H305.76V44.6H319.4V46.72H320.72V32.44ZM305.76 43.24V33.76H319.4V43.24H305.76ZM308.76 10.4C307.08 15 304.64 18.92 301.44 22.12L302.28 23.12C303.8 21.56 305.2 19.84 306.48 17.96C307.8 20.32 309.56 22.52 311.76 24.56C308.64 27.08 304.84 29.24 300.32 31L301.16 32.08C305.68 30.24 309.52 28.04 312.72 25.4C315.6 27.84 319.2 30 323.56 31.88L324.16 30.68C320 29 316.52 26.96 313.64 24.6C316.56 22 318.84 18.96 320.48 15.52V14.44H308.48C309.04 13.28 309.6 12.04 310.12 10.76L308.76 10.4ZM312.68 23.8C310.36 21.72 308.52 19.44 307.16 16.88C307.36 16.52 307.56 16.16 307.8 15.76H319C317.48 18.72 315.36 21.4 312.68 23.8ZM339.6 31.88V41.08H352.64V31.88H339.6ZM351.36 39.84H340.88V33.12H351.36V39.84ZM358.16 13.88V19.64H334.72V13.88H358.16ZM334.72 20.96H359.52V12.52H333.32V27.56C333.28 34.92 331.56 40.96 328.16 45.64L329.2 46.56C332.84 41.28 334.68 34.92 334.72 27.56V26.96H360.16C360.08 35.92 359.92 41.4 359.64 43.4C359.4 44.68 358.56 45.36 357.12 45.36C355.44 45.36 353.48 45.32 351.16 45.28L351.48 46.48C354.2 46.52 356.08 46.56 357.16 46.56C359.4 46.56 360.68 45.56 360.92 43.56C361.32 41.24 361.52 35.28 361.52 25.68H334.72V20.96ZM131.52 77.88H141.68C138.84 87.64 134.24 95.28 127.88 100.76L128.56 102C133.48 98 137.44 92.48 140.4 85.44C141.72 88.96 144.36 92.2 148.32 95.16C145.04 97.48 140.8 99.6 135.68 101.52L136.36 102.76C141.6 100.76 145.96 98.48 149.44 95.96C152.96 98.44 157.48 100.68 163 102.68L163.68 101.48C158.4 99.6 154 97.48 150.48 95.12C154.24 92.12 156.76 88.76 157.96 85.04V83.8H141.08C141.8 81.96 142.44 79.96 143.08 77.88H162.8V76.56H143.44C144.28 73.36 145 69.88 145.56 66.2L144.16 66.04C143.64 69.72 142.92 73.2 142.04 76.56H133.28L136 67.92L134.64 67.68L131.52 77.88ZM141.6 85.12H156.52C155.4 88.44 153 91.52 149.36 94.36C145.52 91.6 142.96 88.52 141.6 85.12ZM152.28 66.84L151.36 67.68C154.4 70.2 156.88 72.6 158.72 74.84L159.72 73.84C157.72 71.48 155.24 69.16 152.28 66.84ZM200.52 68.48H183.92V90H185.32V69.8H199.16V90H200.52V68.48ZM200.2 102.2C201.4 102.2 202.28 101.88 202.84 101.28C203.48 100.48 203.92 98.48 204.12 95.36L202.84 94.96C202.68 97.84 202.32 99.56 201.84 100.2C201.52 100.64 200.88 100.88 199.92 100.88H196.4C195.36 100.88 194.84 100.4 194.84 99.48V89.84H193.48V99.76C193.48 101.36 194.32 102.2 196 102.2H200.2ZM191.4 73.2V83.28C191.36 88 190.48 91.84 188.76 94.8C186.84 97.72 183.76 99.96 179.44 101.56L180.24 102.76C184.64 101.04 187.8 98.72 189.72 95.84C191.68 92.72 192.68 88.52 192.72 83.28V73.2H191.4ZM168.72 81.84V83.2H173.92V94.52C172.04 95.08 170.12 95.56 168.12 95.96L168.44 97.28C172.96 96.24 177.16 94.96 181.04 93.4V92.04C179.2 92.8 177.28 93.48 175.28 94.12V83.2H180.36V81.84H175.28V71.04H180.92V69.72H168.2V71.04H173.92V81.84H168.72ZM229.28 80.52H242.16V79.2H230C230.48 78.16 230.96 77 231.44 75.8L230.12 75.48C228.68 79.48 226.6 82.64 223.8 85.04L224.8 85.96C226.48 84.52 228 82.68 229.28 80.52ZM211.6 77.48V87.16H212.96V77.48H211.6ZM219.32 76V88.32H220.64V76H219.32ZM232.52 83.04L231.6 83.88C234 85.16 236.32 86.64 238.48 88.4L239.36 87.36C237.24 85.68 234.96 84.24 232.52 83.04ZM208.76 69.8V71.12H218.6V74.64H220V71.12H232V74.68H233.4V71.12H243.24V69.8H233.4V66.56H232V69.8H220V66.56H218.6V69.8H208.76ZM238.84 90.64H213.16V100.32H208.16V101.64H243.84V100.32H238.84V90.64ZM214.48 100.32V91.92H221.16V100.32H214.48ZM222.48 100.32V91.92H229.36V100.32H222.48ZM230.68 100.32V91.92H237.52V100.32H230.68ZM262.84 71.48H283.04V70.16H263.56C264.12 69.08 264.64 67.92 265.12 66.68L263.8 66.36C262.2 70.48 259.92 74 256.92 76.88L257.84 77.92C259.76 76.04 261.4 73.88 262.84 71.48ZM256.28 85.44V86.76H260.8C260.4 90.24 259.92 93.56 259.28 96.76H278.4C278.24 97.96 278.12 98.72 278 99C277.48 100.12 276.68 100.84 275.6 101.16C274.56 101.4 273.36 101.52 272.08 101.52C271.12 101.52 270.04 101.48 268.84 101.44L269.24 102.76H272.24C274.4 102.76 276 102.48 277.08 102C278.2 101.36 279 100.4 279.4 99.16C279.48 98.84 279.6 98.04 279.76 96.76H283.56V95.48H279.88C280.04 93.4 280.2 90.52 280.36 86.76H284.2V85.44H280.4C280.52 82.68 280.64 79.52 280.76 75.92H261.52C261.44 79.16 261.24 82.32 260.92 85.44H256.28ZM262.08 86.76H279.04C278.88 90.48 278.68 93.4 278.52 95.48H260.8C261.32 92.88 261.76 89.96 262.08 86.76ZM279.12 85.44H262.2C262.44 82.88 262.6 80.16 262.72 77.2H279.4C279.32 80.24 279.2 82.96 279.12 85.44ZM268.56 78.84L267.68 79.72C269.8 81.24 271.52 82.68 272.84 84.08L273.72 83.16C272.36 81.72 270.64 80.28 268.56 78.84ZM268.32 88.52L267.4 89.36C269.48 91 271.16 92.56 272.44 94.08L273.36 93.16C272 91.6 270.32 90.04 268.32 88.52ZM250 67.56L249.04 68.52C251.68 70.2 253.76 71.84 255.36 73.36L256.32 72.4C254.64 70.8 252.52 69.16 250 67.56ZM249.36 77.32L248.4 78.24C251 80 253.12 81.68 254.72 83.28L255.68 82.28C254 80.64 251.88 79 249.36 77.32ZM254.88 88.68C253.16 93.12 251.12 97.48 248.76 101.72L250.04 102.24C252.24 98.16 254.24 93.8 256.04 89.16L254.88 88.68Z" fill="white"/>
<defs>
<linearGradient id="paint0_linear" x2="1" gradientUnits="userSpaceOnUse" gradientTransform="translate(51753.6 197502) scale(55023.4 155553) rotate(-90)">
<stop stop-color="#808080" stop-opacity="0.25"/>
<stop offset="0.54" stop-color="#808080" stop-opacity="0.12"/>
<stop offset="1" stop-color="#808080" stop-opacity="0.1"/>
</linearGradient>
</defs>
</svg>
